# xmcd CD database file
#
# Track frame offsets:
#	150
#	28511
#	73484
#	113238
#	136345
#	177362
#	198054
#	234945
#
# Disc length: 3766 seconds
#
# Revision: 2
# Processed by: cddbd v1.4PL0 Copyright (c) Steve Scherf et al.
# Submitted via: CDex 1.50
#
DISCID=6a0eb408
DTITLE=Phish - 10/31/96 - "Remain In Light"
DYEAR=1996
DGENRE=Jazz
TTITLE0=Born Under Punches
TTITLE1=Crosseyed and Painless
TTITLE2=Great Curve
TTITLE3=Once in a Lifetime
TTITLE4=Houses in Motion
TTITLE5=Seen and Not Seen
TTITLE6=Listening Wind
TTITLE7=Overload
EXTD=YEAR: 1996
EXTT0=
EXTT1=
EXTT2=
EXTT3=
EXTT4=
EXTT5=
EXTT6=
EXTT7=
PLAYORDER=
